PathFileType	4	(X/Y/Z)	C:/Users/beibeiliu/ov580/test_trc\sequence.3_training_dense_left.trc
DataRate	CameraRate	NumFrames	NumMarkers	Units	OrigDataRate	OrigDataStartFrame	OrigNumFrames
120	120	21	19	mm	120	80	319
Frame#	Time	ThumbCMC			ThumbMCP			ThumbIP			ThumbTip			IndexMCP			IndexPIP			IndexTip			MiddleMCP			MiddlePIP			MiddleTip			RingMCP			RingPIP			RingTip			PinkyMCP			PinkyPIP			PinkyTip			BackHand1			BackHand2			BackHand3	
		X0	Y0	Z0	X1	Y1	Z1	X2	Y2	Z2	X3	Y3	Z3	X4	Y4	Z4	X5	Y5	Z5	X6	Y6	Z6	X7	Y7	Z7	X8	Y8	Z8	X9	Y9	Z9	X10	Y10	Z10	X11	Y11	Z11	X12	Y12	Z12	X13	Y13	Z13	X14	Y14	Z14	X15	Y15	Z15	X16	Y16	Z16	X17	Y17	Z17	X18	Y18	Z18	
79	0.658333	-169.742	10.2435	-20.1346	-160.502	19.9608	-48.3541	-172.127	35.5771	-66.8743	-199.311	42.0411	-67.8507	-169.273	54.5613	-65.5041	-178.293	34.8013	-87.3744	-182.344	11.1496	-76.8385	-188.238	58.3961	-70.0607	-192.667	36.4765	-87.9885	-198.796	12.3046	-67.3219	-203.178	53.7253	-69.9304	-209.105	28.318	-75.4339	-203.966	13.7944	-53.6764	-219.793	52.2264	-59.5443	-219.432	28.9329	-68.0766	-209.528	17.4977	-46.9634	-205.921	50.758	-15.8033	-206.173	36.3899	3.66188	-180.284	38.14	-6.80058	
80	0.666667	-167.483	6.95464	-24.2988	-156.027	10.4175	-53.9727	-170.496	28.819	-68.513	-194.028	34.9646	-71.1018	-165.113	46.6012	-77.2006	-177.899	25.9369	-92.4949	-181.176	2.49475	-75.6366	-183.631	51.4274	-76.9053	-194.743	26.8878	-91.4572	-196.06	6.85136	-68.7701	-197.809	48.9317	-71.6764	-203.252	24.7232	-78.9126	-199.27	11.4265	-52.0252	-218.344	48.0451	-66.0301	-213.754	26.5735	-69.4308	-207.732	14.11	-47.4613	-197.594	55.4719	-23.5345	-197.893	34.479	-1.11444	-173.633	34.3687	-12.4617	
81	0.675	-160.661	-1.47091	-27.147	-154.641	4.13615	-58.2123	-166.75	20.8881	-74.5425	-191.206	29.3469	-75.0046	-159.954	36.1826	-80.851	-176.338	19.9258	-96.4206	-185.277	-1.68483	-75.6346	-176.179	41.5831	-83.2604	-190.098	17.7677	-94.7398	-198.2	2.27899	-66.6023	-195.508	43.5212	-75.5107	-205.369	19.2304	-80.1216	-197.414	7.31948	-51.4103	-208.402	42.7519	-69.0147	-211.224	20.9425	-70.2597	-206.405	11.1853	-45.1392	-189.93	51.1399	-27.1058	-193.882	36.7494	-5.27446	-167.204	30.7666	-18.9445	
82	0.683333	-158.574	-6.13356	-28.5835	-153.588	-6.17155	-57.2471	-166.145	12.7892	-75.9767	-187.443	24.6783	-73.2932	-155.554	26.2132	-86.7042	-173.749	9.25133	-99.6646	-186.293	-6.87586	-77.6518	-172.583	35.4771	-84.3032	-192.159	9.78947	-93.6961	-196.021	-2.07925	-64.6369	-191.019	37.2985	-79.7054	-204.53	14.275	-79.44	-195.266	3.29852	-53.888	-203.626	43.0484	-67.4507	-211.659	18.418	-70.5293	-204.113	9.42367	-48.0242	-177.326	46.8736	-33.4499	-181.776	34.0444	-7.1034	-160.944	26.3226	-19.8245	
83	0.691667	-159.153	-11.0992	-26.8074	-151.694	-14.0246	-60.3231	-163.08	4.01746	-75.6458	-185.201	18.846	-76.6275	-152.545	17.039	-87.9968	-174.409	1.97838	-100.344	-185.185	-14.1365	-78.1768	-172.904	28.2511	-90.4118	-193.049	7.13329	-93.7515	-195.881	-4.84298	-65.8652	-186.245	32.6228	-80.9519	-201.842	9.84617	-80.2718	-196.324	1.64052	-51.681	-201.149	39.6273	-69.8816	-210.969	16.9785	-69.7214	-197.387	6.62623	-47.8126	-173.866	44.3628	-36.2148	-178.368	34.0881	-9.3304	-154.218	21.7933	-24.5806	
84	0.7	-153.054	-12.9982	-29.0533	-149.623	-17.6825	-60.124	-159.13	-4.14583	-81.1575	-182.147	11.538	-80.132	-150.625	11.0613	-89.4357	-175.894	-5.40597	-99.1097	-183.475	-20.61	-78.5729	-168.841	18.4927	-92.1977	-191.1	1.71778	-95.7298	-192.11	-11.7308	-64.5877	-186.15	27.184	-83.6848	-198.788	1.56394	-77.8845	-191.402	-2.14551	-51.2501	-196.247	32.4263	-74.336	-208.147	12.1217	-69.4902	-194.662	2.60799	-49.0053	-168.881	43.4146	-38.5621	-172.971	30.937	-9.75074	-149.698	18.213	-26.4605	
85	0.708333	-152.36	-16.408	-26.8469	-148.83	-20.3812	-57.0221	-158.78	-9.83296	-76.2598	-180.149	5.36696	-81.7353	-153.031	5.85672	-91.7316	-172.387	-8.34141	-101.088	-184.002	-23.3682	-77.0226	-167.353	14.422	-92.047	-190.019	-8.00685	-93.3735	-191.368	-15.5353	-64.9	-187.401	22.6015	-84.9913	-197.19	-3.32569	-79.2161	-192.397	-4.37057	-49.6785	-200.248	28.5329	-76.5345	-205.785	7.25262	-70.5501	-194.223	0.702187	-44.0894	-169.322	39.073	-39.1932	-168.566	30.5708	-14.9748	-149.12	14.8212	-25.6324	
86	0.716667	-152.869	-17.4997	-25.5377	-148.019	-26.7654	-56.369	-156.342	-20.3318	-77.9195	-181.021	0.108077	-83.3193	-153.806	0.733278	-90.863	-174.004	-18.9924	-101.373	-184.647	-29.4453	-73.4787	-170.599	11.4889	-91.2342	-190.472	-10.5806	-94.4545	-191.7	-17.6783	-58.9613	-185.668	15.4317	-84.7646	-200.561	-7.55284	-75.2342	-194.054	-9.41296	-51.4874	-195.844	23.9855	-75.844	-202.587	0.948678	-69.151	-195.81	-1.78983	-45.8892	-168.757	34.5224	-40.1918	-165.175	28.9677	-16.9845	-146.099	12.4388	-28.4004	
87	0.725	-152.609	-22.4796	-26.1307	-149.209	-33.1664	-57.2077	-159.486	-21.3831	-76.1177	-180.737	-7.21756	-86.299	-155.635	-6.4533	-94.3565	-177.241	-21.8898	-101.217	-187.263	-33.3726	-73.5802	-170.314	1.93246	-94.8702	-192.09	-18.1652	-93.9443	-193.557	-22.6584	-63.1168	-187.972	13.2984	-85.65	-200.499	-10.4051	-77.6747	-192.22	-11.9407	-49.8834	-195.511	20.88	-75.9014	-206.966	-0.913747	-67.1379	-196.13	-3.09587	-45.9018	-165.39	32.5488	-43.2077	-165.711	26.8616	-14.6397	-146.118	9.43204	-30.3257	
88	0.733333	-152.664	-24.9122	-28.3876	-152.702	-35.9985	-55.864	-162.618	-25.8452	-81.6568	-183.584	-6.50903	-81.7426	-156.599	-11.2892	-92.3274	-181.357	-29.9698	-99.1274	-191.469	-35.4829	-74.5261	-175.399	-1.55419	-96.0712	-197.436	-20.2796	-90.2542	-195.637	-25.7359	-61.7448	-188.044	10.6312	-84.5935	-201.847	-11.654	-77.3654	-195.1	-13.036	-50.1621	-195.07	17.7776	-77.2172	-206.297	-1.5216	-69.1487	-198.551	-4.18803	-45.3114	-161.84	27.3237	-44.5662	-162.596	26.4528	-18.8664	-144.924	4.67374	-36.4625	
89	0.741667	-155.079	-26.8385	-28.699	-158.628	-40.1654	-55.4192	-170.405	-29.6331	-77.0703	-187.059	-15.5013	-84.5076	-159.052	-17.4508	-92.7134	-183.391	-33.7229	-97.3015	-190.081	-43.2777	-69.531	-176.38	-8.06867	-95.5331	-197.735	-27.1315	-87.448	-195.121	-25.2478	-56.3305	-187.506	2.55322	-86.4995	-205.208	-15.1294	-74.7057	-193.547	-15.8678	-49.3768	-196.734	17.4061	-76.7237	-207.329	-4.51178	-66.467	-192.417	-5.78288	-44.7322	-163.311	26.1575	-47.8012	-161.566	26.2387	-20.553	-143.612	2.23628	-36.9218	
90	0.75	-155.878	-31.7645	-26.3535	-172.037	-45.5813	-50.5934	-187.709	-46.2718	-74.7626	-202.933	-28.0105	-83.8768	-159.203	-19.9414	-91.6605	-183.13	-35.7857	-96.9305	-185.4	-38.8675	-64.1848	-174.832	-11.7126	-90.8917	-199.196	-28.0801	-84.1852	-189.404	-22.6172	-51.1437	-186.222	-0.343703	-84.8162	-205.434	-18.4931	-71.636	-193.268	-13.5005	-42.9288	-200.381	11.2987	-77.2304	-207.163	-7.49735	-66.499	-194.47	-8.61659	-45.0855	-160.313	19.3966	-49.251	-160.884	24.8178	-24.8254	-141.177	-0.405048	-36.2291	
91	0.758333	-155.968	-32.5259	-25.8849	-176.039	-51.0482	-45.8245	-192.317	-52.6724	-65.1014	-208.406	-40.5862	-78.3834	-165.324	-31.5937	-91.5945	-188.387	-41.3681	-86.7154	-184.131	-38.8391	-56.9935	-176.479	-18.0725	-89.1545	-201.581	-34.0372	-74.9088	-189.06	-24.5041	-47.7	-193.672	-7.57823	-84.9562	-208.73	-19.5854	-67.9162	-196.948	-15.6208	-42.1126	-197.395	9.6633	-74.6051	-210.644	-8.65388	-61.1943	-196.005	-8.60632	-38.369	-160.078	18.385	-52.1729	-156.746	23.3362	-27.3948	-144.1	-1.07977	-39.5524	
92	0.766667	-157.218	-31.7241	-22.6582	-177.821	-48.2761	-38.8418	-195.071	-54.1858	-60.6973	-211.623	-42.9162	-72.7215	-169.035	-33.3432	-84.5746	-193.716	-46.41	-76.289	-186.758	-38.3334	-50.8647	-184.379	-19.7733	-87.1951	-205.888	-34.3904	-71.9512	-189.298	-27.8755	-43.5471	-197.78	-8.5606	-80.8029	-211.222	-23.615	-61.1265	-198.253	-21.5056	-39.0357	-203.789	5.62291	-73.3687	-213.032	-12.6097	-58.7645	-195.519	-12.232	-36.9858	-164.846	19.0284	-52.231	-156.689	22.3934	-24.1269	-147.061	1.24425	-36.4147	
93	0.775	-157.937	-30.1231	-20.0549	-180.002	-50.4623	-36.5042	-196.235	-54.7174	-49.9095	-216.752	-51.6204	-64.8612	-170.598	-40.3583	-80.1664	-195.935	-51.7393	-69.7614	-183.99	-40.2007	-41.7302	-189.244	-29.0656	-83.6147	-208.735	-40.2008	-67.4747	-194.646	-27.8305	-39.8908	-203.189	-13.8904	-76.7956	-213.418	-26.3762	-58.4165	-196.746	-23.2542	-33.7973	-204.531	-0.546252	-70.5292	-214.125	-16.791	-53.8372	-196.706	-13.3777	-33.1577	-162.988	13.942	-52.8626	-157.176	19.5212	-27.0637	-145.364	-1.43996	-37.5013	
94	0.783333	-158.278	-26.7458	-18.0256	-180.22	-54.1759	-28.8331	-200.008	-59.4399	-46.8649	-217.629	-51.6481	-56.6855	-177.44	-46.1308	-75.9078	-199.631	-52.3012	-62.8507	-187.181	-42.1302	-38.478	-192.225	-33.9877	-79.4835	-210.389	-45.5193	-59.0999	-194.951	-28.6158	-34.1335	-205.264	-18.0382	-72.7614	-214.753	-31.5096	-53.6638	-199.827	-21.5563	-27.9192	-209.309	-4.56411	-65.6016	-220.49	-15.7713	-48.3702	-200.018	-15.1631	-27.1856	-168.315	11.5201	-50.3124	-159.627	22.5449	-28.0436	-149.917	-0.285433	-37.9112	
95	0.791667	-158.877	-26.038	-17.1469	-179.088	-52.6108	-23.4605	-198.643	-57.927	-42.0833	-220.628	-57.0593	-50.2783	-181.751	-47.9101	-73.3981	-201.106	-54.627	-55.5508	-185.742	-38.3841	-34.3034	-197.998	-33.9046	-75.7959	-213.016	-48.14	-57.2711	-196.661	-29.5361	-31.6915	-210.476	-20.551	-68.3222	-218.36	-32.5803	-48.9489	-202.905	-23.6502	-27.1213	-215.63	-3.59722	-61.7093	-219.146	-20.4349	-38.713	-197.938	-15.5968	-26.7149	-174.26	13.2755	-53.9213	-164.587	21.7494	-27.2408	-148.909	-2.78052	-38.6961	
96	0.8	-159.584	-26.4693	-16.7761	-179.012	-51.2783	-24.1899	-199.559	-65.0209	-38.0928	-220.228	-57.342	-47.4031	-180.517	-49.7694	-69.0398	-197.749	-62.5049	-50.042	-184.517	-40.7671	-30.3458	-197.568	-36.2127	-70.5602	-214.182	-49.4678	-48.8518	-197.424	-32.8668	-28.3341	-210.106	-28.3794	-65.2841	-216.91	-38.735	-40.9298	-201.231	-23.8042	-24.5177	-218.956	-14.3944	-57.9216	-218.821	-24.9691	-36.0083	-201.373	-13.5999	-23.4574	-179.877	11.3654	-52.8658	-169.65	24.7847	-31.9445	-152.935	-2.2355	-35.6782	
97	0.808333	-159.92	-22.9046	-15.5066	-175.402	-51.9118	-19.9817	-193.455	-62.1662	-31.76	-219.765	-59.5171	-43.7778	-177.47	-51.1787	-67.1083	-195.021	-65.3331	-45.2514	-180.568	-42.79	-29.1479	-200.642	-40.632	-66.7052	-210.801	-54.6125	-41.3436	-192.909	-34.4022	-25.579	-212.346	-33.4386	-60.9858	-218.77	-41.112	-35.9259	-201.409	-23.848	-21.419	-221.907	-19.9212	-54.4354	-218.575	-30.5792	-31.2982	-200.373	-14.5174	-20.9858	-182.479	7.87963	-52.8362	-176.691	25.3465	-28.1144	-159.795	0.00697453	-40.2143	
98	0.816667	-156.395	-21.3063	-13.4009	-168.656	-54.0938	-16.7426	-190.187	-65.5776	-32.7519	-212.817	-56.8276	-38.7964	-179.912	-51.1251	-65.1095	-192.327	-67.9067	-44.7565	-180.376	-47.3522	-28.1106	-199.952	-46.7775	-62.1082	-208.7	-60.7273	-39.3584	-193.033	-33.5672	-22.0774	-214.666	-38.3544	-56.1701	-218.834	-45.4632	-32.3881	-202.114	-27.6244	-19.0903	-223.251	-25.8254	-49.998	-219.112	-34.501	-27.6654	-202.322	-15.0814	-17.8873	-190.246	5.33106	-51.6515	-184.09	24.9115	-28.4408	-161.677	1.7336	-35.3114	
99	0.825	-158.753	-15.5147	-15.9787	-161.189	-46.0464	-25.5884	-181.619	-55.6144	-37.4725	-206.78	-47.8979	-39.7856	-181.979	-53.9444	-62.922	-191.585	-72.3172	-46.5434	-178.575	-52.0138	-24.9484	-198.958	-49.7057	-58.5011	-206.248	-64.3224	-31.7007	-194.254	-38.9512	-13.7448	-215.561	-44.3946	-51.1016	-213.656	-50.4991	-26.7549	-199.491	-28.7235	-16.6787	-221.96	-29.986	-48.3012	-221.13	-39.0021	-24.7417	-205.941	-20.4965	-16.4492	-195.316	5.40809	-50.6059	-188.27	21.799	-30.9454	-166.865	6.08469	-36.8939	
